<svg xmlns="http://www.w3.org/2000/svg" xmlns:xlink="http://www.w3.org/1999/xlink" width="500" zoomAndPan="magnify" viewBox="0 0 375 374.999991" height="500" preserveAspectRatio="xMidYMid meet" version="1.2"><defs><clipPath id="58e838e4dc"><path d="M 82.984375 315 L 292 315 L 292 331 L 82.984375 331 Z M 82.984375 315 "/></clipPath></defs><g id="8d5c43eb52"><rect x="0" width="375" y="0" height="374.999991" style="fill:#ffffff;fill-opacity:1;stroke:none;"/><rect x="0" width="375" y="0" height="374.999991" style="fill:#000000;fill-opacity:1;stroke:none;"/><path style=" stroke:none;fill-rule:nonzero;fill:#ffffff;fill-opacity:1;" d="M 113.609375 57.796875 L 113.609375 175.300781 L 125.9375 171.804688 L 138.265625 168.648438 L 138.265625 156.320312 L 175.199219 144.734375 L 175.199219 158.785156 L 187.53125 155.289062 L 199.859375 158.785156 L 199.859375 144.734375 L 237.136719 156.320312 L 237.136719 168.648438 L 249.121094 171.804688 L 261.796875 175.300781 L 261.796875 57.796875 L 228.359375 82.800781 C 233.292969 88.765625 241.035156 98.972656 242.8125 108.148438 C 245.621094 122.199219 239.316406 133.152344 223.085938 133.496094 C 199.859375 133.496094 199.515625 101.152344 216.777344 83.203125 L 187.472656 44.089844 L 158.28125 83.144531 C 175.542969 101.09375 175.542969 133.4375 151.972656 133.4375 C 135.800781 133.09375 129.78125 122.199219 132.246094 108.089844 C 134.023438 98.914062 141.765625 88.765625 147.042969 82.742188 Z M 113.609375 57.796875 "/><path style=" stroke:none;fill-rule:nonzero;fill:#ffffff;fill-opacity:1;" d="M 113.609375 184.824219 L 187.472656 161.597656 L 261.679688 184.824219 L 261.679688 285.8125 L 113.609375 285.8125 Z M 180.074219 179.890625 L 180.074219 270.671875 L 128.746094 270.671875 L 128.746094 196.0625 Z M 195.214844 270.671875 L 195.214844 179.890625 L 246.597656 196.0625 L 246.597656 270.671875 Z M 195.214844 270.671875 "/><path style=" stroke:none;fill-rule:nonzero;fill:#ffffff;fill-opacity:1;" d="M 136.089844 216.824219 C 138.210938 216.132812 139.929688 215.789062 142.050781 215.042969 C 144.175781 214.355469 146.296875 213.609375 148.359375 212.921875 C 148.359375 215.734375 148.359375 218.199219 148.359375 221.007812 C 148.359375 223.476562 148.359375 226.285156 148.359375 228.75 C 146.238281 229.4375 144.117188 229.78125 142.050781 230.183594 C 139.929688 230.527344 138.210938 230.871094 136.089844 231.21875 C 136.089844 228.75 136.089844 226.285156 136.089844 223.820312 C 136.089844 221.753906 136.089844 219.289062 136.089844 216.824219 Z M 155.472656 210.859375 C 157.9375 209.824219 160.746094 209.082031 163.214844 208.046875 C 166.023438 207.359375 169.179688 206.269531 172.390625 205.238281 C 172.390625 208.390625 172.390625 211.546875 172.390625 214.757812 C 172.390625 217.910156 172.390625 221.066406 172.390625 224.621094 C 169.234375 224.964844 166.082031 225.652344 163.214844 226.054688 C 160.746094 226.742188 157.9375 227.085938 155.472656 227.832031 C 155.472656 225.023438 155.472656 222.214844 155.472656 219.402344 C 155.472656 216.476562 155.472656 213.667969 155.472656 210.859375 Z M 172.332031 233.738281 C 172.332031 236.894531 172.332031 240.046875 172.332031 243.261719 C 172.332031 246.414062 172.332031 249.566406 172.332031 252.78125 C 169.179688 252.78125 166.023438 252.78125 163.15625 252.78125 C 160.289062 252.78125 157.878906 252.78125 155.414062 252.78125 C 155.414062 249.96875 155.414062 247.160156 155.414062 244.347656 C 155.414062 241.539062 155.414062 238.730469 155.414062 235.917969 C 157.878906 235.574219 160.347656 235.230469 163.15625 234.886719 C 165.964844 234.542969 169.179688 234.085938 172.332031 233.738281 Z M 148.417969 252.722656 C 146.296875 252.722656 144.175781 252.722656 142.109375 252.722656 C 139.988281 252.722656 138.265625 252.722656 136.144531 252.722656 C 136.144531 250.257812 136.144531 248.132812 136.144531 245.667969 C 136.144531 243.203125 136.144531 240.738281 136.144531 238.269531 C 138.265625 238.269531 139.988281 237.925781 142.109375 237.582031 C 144.230469 237.238281 146.351562 237.238281 148.417969 236.894531 C 148.417969 239.359375 148.417969 242.171875 148.417969 244.980469 C 148.417969 247.445312 148.417969 250.257812 148.417969 252.722656 Z M 148.417969 252.722656 "/><path style=" stroke:none;fill-rule:nonzero;fill:#ffffff;fill-opacity:1;" d="M 238.855469 216.824219 C 237.078125 216.132812 235.011719 215.789062 233.234375 215.042969 C 231.113281 214.355469 228.992188 213.609375 226.527344 212.921875 C 226.527344 215.734375 226.527344 218.199219 226.527344 221.007812 C 226.527344 223.476562 226.527344 226.285156 226.527344 228.75 C 228.992188 229.4375 231.113281 229.78125 233.234375 230.183594 C 235.011719 230.527344 237.078125 230.871094 238.855469 231.21875 C 238.855469 228.75 238.855469 226.285156 238.855469 223.820312 C 238.855469 221.753906 238.855469 219.289062 238.855469 216.824219 Z M 219.875 210.859375 C 217.0625 209.824219 214.597656 209.082031 211.789062 208.046875 C 208.976562 207.359375 205.824219 206.269531 203.011719 205.238281 C 203.011719 208.390625 203.011719 211.546875 203.011719 214.757812 C 203.011719 217.910156 203.011719 221.066406 203.011719 224.621094 C 205.824219 224.964844 208.976562 225.652344 211.789062 226.054688 C 214.597656 226.742188 217.0625 227.085938 219.875 227.832031 C 219.875 225.023438 219.875 222.214844 219.875 219.402344 C 219.875 216.476562 219.875 213.667969 219.875 210.859375 Z M 202.957031 233.738281 C 202.957031 236.894531 202.957031 240.046875 202.957031 243.261719 C 202.957031 246.414062 202.957031 249.566406 202.957031 252.78125 C 205.765625 252.78125 208.921875 252.78125 211.730469 252.78125 C 214.539062 252.78125 217.007812 252.78125 219.816406 252.78125 C 219.816406 249.96875 219.816406 247.160156 219.816406 244.347656 C 219.816406 241.539062 219.816406 238.730469 219.816406 235.917969 C 217.007812 235.574219 214.539062 235.230469 211.730469 234.886719 C 208.921875 234.542969 205.765625 234.085938 202.957031 233.738281 Z M 226.527344 252.722656 C 228.992188 252.722656 231.113281 252.722656 233.234375 252.722656 C 235.011719 252.722656 237.078125 252.722656 238.855469 252.722656 C 238.855469 250.257812 238.855469 248.132812 238.855469 245.667969 C 238.855469 243.203125 238.855469 240.738281 238.855469 238.269531 C 237.078125 238.269531 235.011719 237.925781 233.234375 237.582031 C 231.113281 237.238281 228.992188 237.238281 226.527344 236.894531 C 226.527344 239.359375 226.527344 242.171875 226.527344 244.980469 C 226.527344 247.445312 226.527344 250.257812 226.527344 252.722656 Z M 226.527344 252.722656 "/><path style=" stroke:none;fill-rule:nonzero;fill:#ffffff;fill-opacity:1;" d="M 98.125 308.292969 L 276.820312 308.292969 L 276.820312 293.210938 L 98.125 293.210938 Z M 98.125 308.292969 "/><g clip-rule="nonzero" clip-path="url(#58e838e4dc)"><path style=" stroke:none;fill-rule:nonzero;fill:#ffffff;fill-opacity:1;" d="M 82.984375 330.832031 L 291.960938 330.832031 L 291.960938 315.691406 L 82.984375 315.691406 Z M 82.984375 330.832031 "/></g><path style=" stroke:none;fill-rule:nonzero;fill:#000000;fill-opacity:1;" d="M 246.597656 196.0625 L 195.214844 179.890625 L 195.214844 270.671875 L 246.597656 270.671875 Z M 233.234375 215.101562 L 238.855469 216.878906 L 238.855469 231.332031 L 233.234375 230.300781 L 226.527344 228.867188 L 226.527344 213.039062 Z M 211.730469 208.046875 L 219.816406 210.859375 L 219.816406 227.71875 L 211.730469 225.941406 L 202.957031 224.507812 L 202.957031 205.238281 Z M 202.957031 233.738281 L 211.730469 234.773438 L 219.816406 235.804688 L 219.816406 252.664062 L 202.957031 252.664062 Z M 226.527344 244.980469 L 226.527344 236.894531 L 233.234375 237.582031 L 238.855469 238.269531 L 238.855469 252.722656 L 226.527344 252.722656 Z M 226.527344 244.980469 "/><path style=" stroke:none;fill-rule:nonzero;fill:#000000;fill-opacity:1;" d="M 180.074219 270.671875 L 180.074219 179.890625 L 128.746094 196.0625 L 128.746094 270.671875 Z M 136.089844 216.824219 L 142.050781 215.042969 L 148.359375 212.921875 L 148.359375 228.75 L 142.050781 230.183594 L 136.089844 231.21875 Z M 155.472656 210.859375 L 163.214844 208.046875 L 172.390625 205.238281 L 172.390625 224.621094 L 163.214844 226.054688 L 155.472656 227.832031 Z M 163.214844 234.773438 L 172.390625 233.738281 L 172.390625 252.78125 L 155.472656 252.78125 L 155.472656 235.917969 Z M 148.417969 244.980469 L 148.417969 252.722656 L 136.089844 252.722656 L 136.089844 238.269531 L 142.050781 237.582031 L 148.359375 236.894531 L 148.359375 244.980469 Z M 148.417969 244.980469 "/><g style="fill:#000000;fill-opacity:1;"><g transform="translate(176.840618, 302.89583)"><path style="stroke:none" d="M 3.546875 0.125 C 3.046875 0.125 2.648438 -0.015625 2.359375 -0.296875 C 2.066406 -0.578125 1.921875 -0.945312 1.921875 -1.40625 C 1.921875 -1.863281 2.066406 -2.238281 2.359375 -2.53125 C 2.648438 -2.832031 3.046875 -2.984375 3.546875 -2.984375 C 4.054688 -2.984375 4.457031 -2.84375 4.75 -2.5625 C 5.039062 -2.28125 5.1875 -1.90625 5.1875 -1.4375 C 5.1875 -0.96875 5.035156 -0.585938 4.734375 -0.296875 C 4.441406 -0.015625 4.046875 0.125 3.546875 0.125 Z M 3.546875 0.125 "/></g></g><g style="fill:#000000;fill-opacity:1;"><g transform="translate(183.943497, 302.89583)"><path style="stroke:none" d="M 3.546875 0.125 C 3.046875 0.125 2.648438 -0.015625 2.359375 -0.296875 C 2.066406 -0.578125 1.921875 -0.945312 1.921875 -1.40625 C 1.921875 -1.863281 2.066406 -2.238281 2.359375 -2.53125 C 2.648438 -2.832031 3.046875 -2.984375 3.546875 -2.984375 C 4.054688 -2.984375 4.457031 -2.84375 4.75 -2.5625 C 5.039062 -2.28125 5.1875 -1.90625 5.1875 -1.4375 C 5.1875 -0.96875 5.035156 -0.585938 4.734375 -0.296875 C 4.441406 -0.015625 4.046875 0.125 3.546875 0.125 Z M 3.546875 0.125 "/></g></g><g style="fill:#000000;fill-opacity:1;"><g transform="translate(191.046375, 302.89583)"><path style="stroke:none" d="M 3.546875 0.125 C 3.046875 0.125 2.648438 -0.015625 2.359375 -0.296875 C 2.066406 -0.578125 1.921875 -0.945312 1.921875 -1.40625 C 1.921875 -1.863281 2.066406 -2.238281 2.359375 -2.53125 C 2.648438 -2.832031 3.046875 -2.984375 3.546875 -2.984375 C 4.054688 -2.984375 4.457031 -2.84375 4.75 -2.5625 C 5.039062 -2.28125 5.1875 -1.90625 5.1875 -1.4375 C 5.1875 -0.96875 5.035156 -0.585938 4.734375 -0.296875 C 4.441406 -0.015625 4.046875 0.125 3.546875 0.125 Z M 3.546875 0.125 "/></g></g></g></svg>